<svg width="318" height="318" viewBox="0 0 318 318" fill="none" xmlns="http://www.w3.org/2000/svg">
<circle cx="159" cy="159" r="159" fill="black" fill-opacity="0.8"/>
<path d="M137.4 207.6V177C137.4 174.6 137 173.067 136.2 172.4C135.533 171.6 134 171.2 131.6 171.2H116.8C110.4 171.2 105.733 169.667 102.8 166.6C100 163.533 98.6 159.133 98.6 153.4V120.4C98.6 114.667 100.067 110.333 103 107.4C106.067 104.333 110.8 102.8 117.2 102.8H136.8C143.333 102.8 148.067 104.333 151 107.4C153.933 110.333 155.4 114.667 155.4 120.4V138.8H137.2V123.2C137.2 120.8 136.8 119.267 136 118.6C135.333 117.8 133.733 117.4 131.2 117.4H122.8C120.4 117.4 118.8 117.8 118 118.6C117.2 119.267 116.8 120.8 116.8 123.2V151C116.8 153.267 117.2 154.8 118 155.6C118.8 156.4 120.4 156.8 122.8 156.8H137.4C143.8 156.8 148.467 158.333 151.4 161.4C154.333 164.333 155.8 168.667 155.8 174.4V210.4C155.8 216.133 154.267 220.533 151.2 223.6C148.267 226.533 143.6 228 137.2 228H117.6C111.2 228 106.467 226.533 103.4 223.6C100.467 220.533 99 216.133 99 210.4V192H117.2V207.6C117.2 209.867 117.6 211.4 118.4 212.2C119.2 213 120.8 213.4 123.2 213.4H131.6C134 213.4 135.533 213 136.2 212.2C137 211.4 137.4 209.867 137.4 207.6Z" fill="white"/>
<path d="M185.461 105.2H203.461V228H185.461V105.2ZM224.461 102.8V117.4H164.461V102.8H224.461Z" fill="#1E88E5"/>
</svg>
