<svg width="293" height="58" viewBox="0 0 293 58" fill="none" xmlns="http://www.w3.org/2000/svg">
<path d="M0 5C0 2.23858 2.23858 0 5 0H13.9046C15.5318 0 17.0572 0.791809 17.9936 2.12253L22.2027 8.10389C24.1092 10.813 28.0754 10.9529 30.1679 8.38479L36.3166 0.838721C36.749 0.308001 37.3973 0 38.0819 0H82C86.4183 0 90 3.58172 90 8C90 12.4183 86.4183 16 82 16H45.5L30.1491 35.6806C28.0844 38.3276 24.0496 38.2283 22.1176 35.4829L16.5 27.5V48.75C16.5 53.3064 12.8063 57 8.25 57C3.69365 57 0 53.3064 0 48.75V5Z" fill="white"/>
<path opacity="0.7" d="M54.5 30.25C54.5 25.6937 58.1937 22 62.75 22C67.3063 22 71 25.6937 71 30.25V49.25C71 53.8064 67.3063 57.5 62.75 57.5C58.1937 57.5 54.5 53.8063 54.5 49.25V30.25Z" fill="white"/>
<path d="M133.007 4V22.438H128.489V11.3805L124.342 22.438H120.696L116.522 11.3542V22.438H112.004V4H117.341L122.545 16.7648L127.697 4H133.007Z" fill="white"/>
<path d="M149.861 14.6898C149.861 15.1451 149.835 15.6266 149.782 16.1344H138.211C138.299 17.5527 138.783 18.6646 139.664 19.4701C140.562 20.258 141.645 20.652 142.913 20.652C143.952 20.652 144.815 20.4156 145.502 19.9428C146.207 19.4526 146.7 18.8047 146.982 17.9992H149.571C149.183 19.3825 148.408 20.5119 147.246 21.3874C146.083 22.2454 144.639 22.6744 142.913 22.6744C141.539 22.6744 140.307 22.368 139.215 21.7551C138.14 21.1423 137.295 20.2755 136.678 19.1549C136.062 18.0167 135.754 16.7035 135.754 15.2151C135.754 13.7268 136.053 12.4223 136.652 11.3017C137.251 10.181 138.087 9.32304 139.162 8.7277C140.254 8.11485 141.504 7.80842 142.913 7.80842C144.287 7.80842 145.502 8.10609 146.559 8.70143C147.616 9.29677 148.426 10.1197 148.99 11.1703C149.571 12.2034 149.861 13.3766 149.861 14.6898ZM147.378 14.1908C147.378 13.2803 147.175 12.5011 146.77 11.8532C146.365 11.1879 145.81 10.6888 145.106 10.3561C144.419 10.0059 143.653 9.83083 142.808 9.83083C141.592 9.83083 140.553 10.216 139.69 10.9865C138.845 11.7569 138.36 12.825 138.237 14.1908H147.378Z" fill="white"/>
<path d="M165.874 8.04481V22.438H163.47V20.3106C163.012 21.046 162.369 21.6238 161.542 22.044C160.731 22.4468 159.833 22.6481 158.847 22.6481C157.72 22.6481 156.707 22.4205 155.809 21.9653C154.91 21.4925 154.197 20.7921 153.669 19.8641C153.158 18.936 152.903 17.8066 152.903 16.4759V8.04481H155.28V16.1607C155.28 17.579 155.641 18.6734 156.364 19.4438C157.086 20.1967 158.072 20.5732 159.322 20.5732C160.608 20.5732 161.621 20.1792 162.361 19.3913C163.1 18.6033 163.47 17.4564 163.47 15.9506V8.04481H165.874Z" fill="white"/>
<path d="M175.059 22.6744C173.949 22.6744 172.954 22.4906 172.073 22.1228C171.193 21.7376 170.497 21.2123 169.986 20.5469C169.476 19.8641 169.194 19.0849 169.141 18.2094H171.624C171.695 18.9273 172.029 19.5139 172.628 19.9691C173.245 20.4244 174.046 20.652 175.032 20.652C175.948 20.652 176.67 20.4506 177.199 20.0479C177.727 19.6452 177.991 19.1374 177.991 18.5245C177.991 17.8942 177.71 17.4302 177.146 17.1325C176.582 16.8173 175.71 16.5109 174.53 16.2132C173.456 15.9331 172.575 15.6529 171.889 15.3727C171.219 15.0751 170.638 14.6461 170.145 14.0858C169.669 13.5079 169.432 12.755 169.432 11.827C169.432 11.0915 169.652 10.4174 170.092 9.80456C170.532 9.19171 171.158 8.71019 171.968 8.35999C172.778 7.99228 173.703 7.80842 174.742 7.80842C176.345 7.80842 177.639 8.21115 178.625 9.01661C179.612 9.82207 180.14 10.9252 180.211 12.326H177.806C177.754 11.5731 177.445 10.969 176.882 10.5137C176.336 10.0585 175.596 9.83083 174.663 9.83083C173.8 9.83083 173.113 10.0147 172.602 10.3824C172.091 10.7501 171.836 11.2316 171.836 11.827C171.836 12.2997 171.985 12.6937 172.285 13.0089C172.602 13.3066 172.989 13.5517 173.447 13.7443C173.923 13.9194 174.574 14.1208 175.402 14.3484C176.441 14.6286 177.287 14.9087 177.938 15.1889C178.59 15.4515 179.145 15.8543 179.603 16.3971C180.078 16.9399 180.325 17.649 180.343 18.5245C180.343 19.3125 180.122 20.0216 179.682 20.652C179.242 21.2824 178.617 21.7814 177.806 22.1491C177.014 22.4993 176.098 22.6744 175.059 22.6744Z" fill="white"/>
<path d="M125.345 33.4842V37.0825H120.432V51.9222H115.914V37.0825H111V33.4842H125.345Z" fill="white"/>
<path d="M130.413 39.8666C130.836 39.0436 131.435 38.4045 132.21 37.9492C133.002 37.494 133.962 37.2664 135.089 37.2664V39.7353H134.455C131.761 39.7353 130.413 41.1886 130.413 44.0953V51.9222H128.009V37.529H130.413V39.8666Z" fill="white"/>
<path d="M151.074 44.1741C151.074 44.6293 151.048 45.1108 150.995 45.6186H139.423C139.511 47.0369 139.996 48.1488 140.876 48.9543C141.775 49.7422 142.858 50.1362 144.126 50.1362C145.165 50.1362 146.028 49.8998 146.715 49.4271C147.419 48.9368 147.913 48.2889 148.194 47.4834H150.783C150.396 48.8667 149.621 49.9961 148.458 50.8716C147.296 51.7296 145.852 52.1586 144.126 52.1586C142.752 52.1586 141.519 51.8522 140.427 51.2393C139.353 50.6265 138.507 49.7597 137.891 48.6391C137.274 47.501 136.966 46.1877 136.966 44.6994C136.966 43.211 137.266 41.9065 137.865 40.7859C138.463 39.6652 139.3 38.8072 140.374 38.2119C141.466 37.5991 142.717 37.2926 144.126 37.2926C145.5 37.2926 146.715 37.5903 147.772 38.1856C148.828 38.781 149.639 39.6039 150.202 40.6545C150.783 41.6876 151.074 42.8608 151.074 44.1741ZM148.591 43.675C148.591 42.7645 148.388 41.9853 147.983 41.3374C147.578 40.6721 147.023 40.173 146.319 39.8403C145.632 39.4901 144.866 39.315 144.02 39.315C142.805 39.315 141.766 39.7002 140.903 40.4707C140.057 41.2411 139.573 42.3092 139.45 43.675H148.591Z" fill="white"/>
<path d="M155.489 35.1914C155.031 35.1914 154.644 35.0338 154.327 34.7187C154.01 34.4035 153.851 34.0183 153.851 33.563C153.851 33.1077 154.01 32.7225 154.327 32.4073C154.644 32.0922 155.031 31.9346 155.489 31.9346C155.929 31.9346 156.299 32.0922 156.599 32.4073C156.916 32.7225 157.074 33.1077 157.074 33.563C157.074 34.0183 156.916 34.4035 156.599 34.7187C156.299 35.0338 155.929 35.1914 155.489 35.1914ZM156.651 37.529V51.9222H154.247V37.529H156.651Z" fill="white"/>
<path d="M167.803 37.2664C169.564 37.2664 170.991 37.8004 172.083 38.8685C173.175 39.9191 173.721 41.4425 173.721 43.4386V51.9222H171.343V43.7801C171.343 42.3443 170.982 41.2499 170.26 40.497C169.538 39.7265 168.551 39.3413 167.301 39.3413C166.033 39.3413 165.02 39.7353 164.263 40.5232C163.523 41.3112 163.153 42.4581 163.153 43.9639V51.9222H160.749V37.529H163.153V39.5777C163.629 38.8423 164.271 38.2732 165.082 37.8705C165.909 37.4677 166.816 37.2664 167.803 37.2664Z" fill="white"/>
<path d="M176.749 44.6731C176.749 43.2023 177.049 41.9153 177.648 40.8121C178.246 39.6915 179.065 38.8247 180.105 38.2119C181.161 37.5991 182.333 37.2926 183.618 37.2926C184.886 37.2926 185.987 37.564 186.921 38.1068C187.854 38.6497 188.55 39.3325 189.008 40.1555V37.529H191.438V51.9222H189.008V49.2432C188.532 50.0837 187.819 50.7841 186.868 51.3444C185.934 51.8872 184.842 52.1586 183.592 52.1586C182.306 52.1586 181.144 51.8434 180.105 51.2131C179.065 50.5827 178.246 49.6985 177.648 48.5603C177.049 47.4222 176.749 46.1264 176.749 44.6731ZM189.008 44.6994C189.008 43.6137 188.788 42.6682 188.347 41.8627C187.907 41.0573 187.308 40.4444 186.551 40.0242C185.811 39.5864 184.992 39.3676 184.094 39.3676C183.196 39.3676 182.377 39.5777 181.637 39.9979C180.897 40.4182 180.307 41.031 179.867 41.8365C179.427 42.6419 179.206 43.5875 179.206 44.6731C179.206 45.7762 179.427 46.7393 179.867 47.5622C180.307 48.3677 180.897 48.9893 181.637 49.4271C182.377 49.8473 183.196 50.0574 184.094 50.0574C184.992 50.0574 185.811 49.8473 186.551 49.4271C187.308 48.9893 187.907 48.3677 188.347 47.5622C188.788 46.7393 189.008 45.785 189.008 44.6994Z" fill="white"/>
<path d="M212.911 37.2664C214.038 37.2664 215.042 37.5027 215.923 37.9755C216.804 38.4308 217.499 39.1224 218.01 40.0505C218.521 40.9785 218.776 42.1079 218.776 43.4386V51.9222H216.398V43.7801C216.398 42.3443 216.037 41.2499 215.315 40.497C214.611 39.7265 213.651 39.3413 212.436 39.3413C211.185 39.3413 210.19 39.744 209.45 40.5495C208.711 41.3374 208.341 42.4843 208.341 43.9902V51.9222H205.963V43.7801C205.963 42.3443 205.602 41.2499 204.88 40.497C204.175 39.7265 203.215 39.3413 202 39.3413C200.75 39.3413 199.755 39.744 199.015 40.5495C198.275 41.3374 197.905 42.4843 197.905 43.9902V51.9222H195.501V37.529H197.905V39.6039C198.381 38.851 199.015 38.2732 199.807 37.8705C200.618 37.4677 201.507 37.2664 202.476 37.2664C203.691 37.2664 204.765 37.5378 205.699 38.0806C206.632 38.6234 207.328 39.4201 207.786 40.4707C208.191 39.4551 208.86 38.6672 209.794 38.1068C210.727 37.5465 211.766 37.2664 212.911 37.2664Z" fill="white"/>
<path d="M235.929 44.1741C235.929 44.6293 235.903 45.1108 235.85 45.6186H224.278C224.367 47.0369 224.851 48.1488 225.732 48.9543C226.63 49.7422 227.713 50.1362 228.981 50.1362C230.02 50.1362 230.883 49.8998 231.57 49.4271C232.275 48.9368 232.768 48.2889 233.05 47.4834H235.639C235.251 48.8667 234.476 49.9961 233.314 50.8716C232.151 51.7296 230.707 52.1586 228.981 52.1586C227.607 52.1586 226.374 51.8522 225.282 51.2393C224.208 50.6265 223.363 49.7597 222.746 48.6391C222.13 47.501 221.822 46.1877 221.822 44.6994C221.822 43.211 222.121 41.9065 222.72 40.7859C223.319 39.6652 224.155 38.8072 225.23 38.2119C226.322 37.5991 227.572 37.2926 228.981 37.2926C230.355 37.2926 231.57 37.5903 232.627 38.1856C233.684 38.781 234.494 39.6039 235.057 40.6545C235.639 41.6876 235.929 42.8608 235.929 44.1741ZM233.446 43.675C233.446 42.7645 233.243 41.9853 232.838 41.3374C232.433 40.6721 231.878 40.173 231.174 39.8403C230.487 39.4901 229.721 39.315 228.875 39.315C227.66 39.315 226.621 39.7002 225.758 40.4707C224.913 41.2411 224.428 42.3092 224.305 43.675H233.446Z" fill="white"/>
<path d="M246.156 37.2664C247.918 37.2664 249.344 37.8004 250.436 38.8685C251.528 39.9191 252.074 41.4425 252.074 43.4386V51.9222H249.697V43.7801C249.697 42.3443 249.335 41.2499 248.613 40.497C247.891 39.7265 246.905 39.3413 245.654 39.3413C244.386 39.3413 243.374 39.7353 242.616 40.5232C241.877 41.3112 241.507 42.4581 241.507 43.9639V51.9222H239.103V37.529H241.507V39.5777C241.982 38.8423 242.625 38.2732 243.435 37.8705C244.263 37.4677 245.17 37.2664 246.156 37.2664Z" fill="white"/>
<path d="M258.934 39.4989V47.9825C258.934 48.6829 259.084 49.1819 259.383 49.4796C259.682 49.7597 260.202 49.8998 260.942 49.8998H262.712V51.9222H260.545C259.207 51.9222 258.203 51.6158 257.534 51.0029C256.864 50.3901 256.53 49.3833 256.53 47.9825V39.4989H254.654V37.529H256.53V33.9044H258.934V37.529H262.712V39.4989H258.934Z" fill="white"/>
<path d="M271.939 52.1586C270.583 52.1586 269.35 51.8522 268.24 51.2393C267.148 50.6265 266.285 49.7597 265.651 48.6391C265.035 47.501 264.726 46.1877 264.726 44.6994C264.726 43.2285 265.043 41.9328 265.678 40.8121C266.329 39.674 267.21 38.8072 268.319 38.2119C269.429 37.5991 270.671 37.2926 272.044 37.2926C273.418 37.2926 274.66 37.5991 275.77 38.2119C276.879 38.8072 277.751 39.6652 278.385 40.7859C279.037 41.9065 279.363 43.211 279.363 44.6994C279.363 46.1877 279.028 47.501 278.359 48.6391C277.707 49.7597 276.817 50.6265 275.69 51.2393C274.563 51.8522 273.313 52.1586 271.939 52.1586ZM271.939 50.0574C272.802 50.0574 273.612 49.856 274.369 49.4533C275.127 49.0506 275.734 48.4465 276.192 47.641C276.668 46.8356 276.906 45.855 276.906 44.6994C276.906 43.5437 276.677 42.5631 276.219 41.7577C275.761 40.9522 275.162 40.3569 274.422 39.9717C273.682 39.5689 272.881 39.3676 272.018 39.3676C271.137 39.3676 270.327 39.5689 269.588 39.9717C268.865 40.3569 268.284 40.9522 267.844 41.7577C267.404 42.5631 267.183 43.5437 267.183 44.6994C267.183 45.8725 267.395 46.8618 267.817 47.6673C268.258 48.4728 268.839 49.0769 269.561 49.4796C270.283 49.8648 271.076 50.0574 271.939 50.0574Z" fill="white"/>
<path d="M287.649 52.1586C286.539 52.1586 285.544 51.9748 284.663 51.607C283.783 51.2218 283.087 50.6965 282.576 50.0311C282.066 49.3483 281.784 48.5691 281.731 47.6936H284.214C284.285 48.4115 284.619 48.9981 285.218 49.4533C285.835 49.9086 286.636 50.1362 287.622 50.1362C288.538 50.1362 289.26 49.9348 289.789 49.5321C290.317 49.1294 290.581 48.6216 290.581 48.0087C290.581 47.3784 290.299 46.9144 289.736 46.6167C289.172 46.3015 288.3 45.9951 287.12 45.6974C286.046 45.4173 285.165 45.1371 284.478 44.8569C283.809 44.5593 283.228 44.1303 282.735 43.57C282.259 42.9921 282.022 42.2392 282.022 41.3112C282.022 40.5757 282.242 39.9016 282.682 39.2888C283.122 38.6759 283.748 38.1944 284.558 37.8442C285.368 37.4765 286.293 37.2926 287.332 37.2926C288.934 37.2926 290.229 37.6954 291.215 38.5008C292.202 39.3063 292.73 40.4094 292.8 41.8102H290.396C290.343 41.0573 290.035 40.4532 289.472 39.9979C288.926 39.5427 288.186 39.315 287.252 39.315C286.389 39.315 285.703 39.4989 285.192 39.8666C284.681 40.2343 284.426 40.7158 284.426 41.3112C284.426 41.7839 284.575 42.1779 284.875 42.4931C285.192 42.7908 285.579 43.0359 286.037 43.2285C286.513 43.4036 287.164 43.605 287.992 43.8326C289.031 44.1128 289.877 44.3929 290.528 44.6731C291.18 44.9357 291.735 45.3385 292.193 45.8813C292.668 46.4241 292.915 47.1332 292.933 48.0087C292.933 48.7967 292.712 49.5058 292.272 50.1362C291.832 50.7666 291.206 51.2656 290.396 51.6333C289.604 51.9835 288.688 52.1586 287.649 52.1586Z" fill="white"/>
</svg>
